inDegrees=yes
name=ik_S56_A06_T02
DataType=double
version=3
OpenSimVersion=4.3-2021-08-27-4bc7ad9
endheader
time	pelvis_tilt	pelvis_list	pelvis_rotation	pelvis_tx	pelvis_ty	pelvis_tz	hip_flexion_r	hip_adduction_r	hip_rotation_r	knee_angle_r	knee_angle_r_beta	ankle_angle_r	subtalar_angle_r	mtp_angle_r	hip_flexion_l	hip_adduction_l	hip_rotation_l	knee_angle_l	knee_angle_l_beta	ankle_angle_l	subtalar_angle_l	mtp_angle_l	lumbar_extension	lumbar_bending	lumbar_rotation	arm_flex_r	arm_add_r	arm_rot_r	elbow_flex_r	pro_sup_r	wrist_flex_r	wrist_dev_r	arm_flex_l	arm_add_l	arm_rot_l	elbow_flex_l	pro_sup_l	wrist_flex_l	wrist_dev_l
19.33999999999968	-7.970962955462777	-1.063271999375836	37.74353659230812	0	0.9399999999999999	0	37.34268992902739	-11.0060947635481	-10.0015114389152	51.16153911554684	0.89293730795416	0	0	0	37.34268992902739	-11.0060947635481	-10.0015114389152	51.16153911554684	0.89293730795416	0	0	0	-6.578163441552032	2.772463201226011	-8.680406588475611	32.71302285307241	-13.1732657478493	6.787069241552471	44.71214999276398	125.9377798770292	0	0	49.75014517131323	-7.154557706643597	5.542417887596877	69.21327557954655	121.0320089679373	0	0
19.35999999999968	-7.959234565956246	-1.109513112243536	37.63725987242497	0	0.9399999999999999	0	37.34532847588566	-11.0048940270214	-10.0015102830875	51.16241752874198	0.8929526391566081	0	0	0	37.34532847588566	-11.0048940270214	-10.0015102830875	51.16241752874198	0.8929526391566081	0	0	0	-6.597445684480526	2.73164215085161	-8.701850480436688	32.78246220683194	-13.02962140195536	6.761621065986971	44.50769645642259	126.0119006822309	0	0	49.51080253894175	-7.11447578344536	5.646679629766222	69.40491535757081	120.9070994755276	0	0
19.37999999999968	-7.957407524008606	-1.122775649986249	37.56735619264136	0	0.9399999999999999	0	37.3483472108934	-11.00352513711205	-10.00150896359095	51.16342523709553	0.8929702269852774	0	0	0	37.3483472108934	-11.00352513711205	-10.00150896359095	51.16342523709553	0.8929702269852774	0	0	0	-6.604062033404246	2.7193129729708	-8.691420310225588	32.84169726793975	-12.96456015366252	6.701000692225489	44.3959109712485	126.1137735072098	0	0	49.27815242952414	-7.025091873611694	5.637783331973942	69.63146797002209	121.2963973794429	0	0
19.39999999999968	-7.950817042047839	-1.141713296536784	37.488809728589	0	0.9399999999999999	0	37.35175912904642	-11.00198954239902	-10.001507479334	51.16457163634389	0.8929902354267037	0	0	0	37.35175912904642	-11.00198954239902	-10.001507479334	51.16457163634389	0.8929902354267037	0	0	0	-6.610676034044854	2.704140924147139	-8.71538929884847	32.91001321511491	-12.89113294346636	6.705293435242098	44.31291942219995	126.199669372482	0	0	48.91805750584146	-6.808888890036523	5.254236465497342	69.94904298336232	122.1452210757572	0	0
19.41999999999967	-7.922632430268873	-1.147899277458276	37.44859326144316	0	0.9399999999999999	0	37.35411747441684	-11.00092711982229	-10.00150645261869	51.16536274609354	0.8930040428965798	0	0	0	37.35411747441684	-11.00092711982229	-10.00150645261869	51.16536274609354	0.8930040428965798	0	0	0	-6.592648692191802	2.688875843551189	-8.765835937866331	32.93634671590968	-12.83202899880706	6.721762419523164	44.22505127944388	126.2670818407541	0	0	48.74077760658061	-6.707172066977689	4.860126956169835	69.93710970447509	122.2483295176101	0	0
19.43999999999967	-7.907407770408793	-1.152750339849367	37.38903771083931	0	0.9399999999999999	0	37.35682210167136	-10.99970944211231	-10.00150527545135	51.1662699026813	0.8930198757658673	0	0	0	37.35682210167136	-10.99970944211231	-10.00150527545135	51.1662699026813	0.8930198757658673	0	0	0	-6.58377394171113	2.678872674555614	-8.785957214991575	32.96583665805984	-12.78822047764158	6.743723224831789	44.12998899922908	126.2790810465158	0	0	48.56925315001141	-6.487441752704695	4.533959882046	70.0531955723431	122.657747837065	0	0
19.45999999999967	-7.907057387095145	-1.162670430226435	37.36818535328484	0	0.9399999999999999	0	37.36025310270132	-10.99816458744244	-10.00150378180351	51.16741967361671	0.8930399430543339	0	0	0	37.36025310270132	-10.99816458744244	-10.00150378180351	51.16741967361671	0.8930399430543339	0	0	0	-6.589337266147731	2.670370453410053	-8.777393205598749	33.0153281211233	-12.76611288332932	6.696229622385665	44.04286358578967	126.3089842202788	0	0	48.38141908056613	-6.257555151997105	4.325812769429536	70.24347438913956	123.0782297291834	0	0
19.47999999999967	-7.891932222885266	-1.161582459475156	37.30000573251009	0	0.9399999999999999	0	37.36401324966802	-10.99647642449418	-10.00150214761969	51.16868192587791	0.8930619735122826	0	0	0	37.36401324966802	-10.99647642449418	-10.00150214761969	51.16868192587791	0.8930619735122826	0	0	0	-6.576505695771437	2.661319310017546	-8.765848989437565	33.04574780946137	-12.74071034369598	6.687372162000468	43.94948070005744	126.3840000348526	0	0	48.08097451756287	-6.08449209110144	4.116356671890328	70.66620174191324	123.5686616202109	0	0
19.49999999999967	-7.871889846834518	-1.160842426046784	37.29836046290534	0	0.9399999999999999	0	37.36720344387681	-10.99516895713387	-10.00150084068555	51.16984448690121	0.8930822640298945	0	0	0	37.36720344387681	-10.99516895713387	-10.00150084068555	51.16984448690121	0.8930822640298945	0	0	0	-6.561524365040659	2.656989463418674	-8.807928248572857	33.02155611495859	-12.71101359980759	6.714394315089082	43.91163616077183	126.411080568293	0	0	47.71617601440855	-5.906107456936507	3.940805352074981	71.36431700292125	125.4278369857578	0	0
19.51999999999967	-7.864083752135538	-1.161896452326057	37.39066367721372	0	0.9399999999999999	0	37.37120999640377	-10.99338765510798	-10.00149910999728	51.1712000576475	0.893105923202661	0	0	0	37.37120999640377	-10.99338765510798	-10.00149910999728	51.1712000576475	0.893105923202661	0	0	0	-6.557191650254837	2.666314928921433	-8.949233050852264	33.05626123074367	-12.68335550226712	6.674885119909428	43.84061778555739	126.5061617294262	0	0	47.71355576575764	-5.954563408074466	3.781459184606983	72.14193656459504	129.1386412075345	0	0
19.53999999999967	-7.84496386218368	-1.173777765151186	37.71115621990573	0	0.9399999999999999	0	37.37630204290812	-10.99113855018767	-10.00149691936812	51.17293186573703	0.893136148955836	0	0	0	37.37630204290812	-10.99113855018767	-10.00149691936812	51.17293186573703	0.893136148955836	0	0	0	-6.566024881202025	2.697288131698003	-9.313924276149343	33.07458930931573	-12.62679616322653	6.712866453509502	43.80643856596873	126.5132553597718	0	0	47.29150217561793	-5.752553233618604	3.468623036897326	73.89278778335807	134.9029334459217	0	0
19.55999999999967	-7.846342283298657	-1.179653896837593	37.74595513208001	0	0.9399999999999999	0	37.3804642800017	-10.98929261212698	-10.00149512350536	51.17434016588383	0.893160728430254	0	0	0	37.3804642800017	-10.98929261212698	-10.00149512350536	51.17434016588383	0.893160728430254	0	0	0	-6.57183658589525	2.700527418940998	-9.374234664640248	33.12479996019347	-12.65163268913535	6.630080240280217	43.79016871883391	126.5514888508535	0	0	47.28943390511986	-5.771606673629745	3.372102204749171	74.70605626377152	137.6206461930853	0	0
19.57999999999967	-7.848633704379014	-1.200293391353676	37.7422839343582	0	0.9399999999999999	0	37.3852339276693	-10.98723564184984	-10.00149310254839	51.17599587038112	0.8931896259251717	0	0	0	37.3852339276693	-10.98723564184984	-10.00149310254839	51.17599587038112	0.8931896259251717	0	0	0	-6.588874308370161	2.698002792754068	-9.41645853532431	33.14862310853369	-12.63345528564664	6.684190638639063	43.77016399361297	126.553859125899	0	0	46.02953070657504	-5.124003696898834	3.137622943297762	77.77673244181601	143.7133731419156	0	0
